<mxfile host="app.diagrams.net" agent="Mozilla/5.0 (Windows NT 10.0; Win64; x64) AppleWebKit/537.36 (KHTML, like Gecko) Chrome/126.0.0.0 Safari/537.36 Edg/126.0.0.0" version="24.7.4">
  <diagram name="Seite-1" id="QBM0ZUHtXHsBxh_9-d0w">
    <mxGraphModel dx="1386" dy="785" grid="1" gridSize="10" guides="1" tooltips="1" connect="1" arrows="1" fold="1" page="1" pageScale="1" pageWidth="827" pageHeight="1169" math="0" shadow="0">
      <root>
        <mxCell id="0" />
        <mxCell id="1" parent="0" />
        <mxCell id="wngSB1kvzwr7eXXh66c_-1" value="Start" style="ellipse;whiteSpace=wrap;html=1;" vertex="1" parent="1">
          <mxGeometry x="150" y="220" width="90" height="50" as="geometry" />
        </mxCell>
        <mxCell id="wngSB1kvzwr7eXXh66c_-2" value="" style="endArrow=none;html=1;rounded=0;" edge="1" parent="1">
          <mxGeometry width="50" height="50" relative="1" as="geometry">
            <mxPoint x="360" y="960" as="sourcePoint" />
            <mxPoint x="360" y="170" as="targetPoint" />
          </mxGeometry>
        </mxCell>
        <mxCell id="wngSB1kvzwr7eXXh66c_-3" value="&lt;h1 style=&quot;margin-top: 0px;&quot;&gt;MSCI Data Mapping für ESG Annex&lt;/h1&gt;&lt;p&gt;&lt;span style=&quot;color: rgb(1, 4, 9); font-family: -apple-system, BlinkMacSystemFont, &amp;quot;Segoe UI&amp;quot;, &amp;quot;Noto Sans&amp;quot;, Helvetica, Arial, sans-serif, &amp;quot;Apple Color Emoji&amp;quot;, &amp;quot;Segoe UI Emoji&amp;quot;; background-color: rgb(255, 255, 255);&quot;&gt;&lt;font style=&quot;font-size: 12px;&quot;&gt;ingesting MSCI Data with Power Query linked to Xentis DB and transforming the data into the data points that correspond to the fields in ESG Annex&lt;/font&gt;&lt;/span&gt;&lt;br&gt;&lt;/p&gt;" style="text;html=1;whiteSpace=wrap;overflow=hidden;rounded=0;" vertex="1" parent="1">
          <mxGeometry x="40" y="20" width="370" height="150" as="geometry" />
        </mxCell>
        <mxCell id="wngSB1kvzwr7eXXh66c_-4" value="&lt;b&gt;Ablauf&lt;/b&gt;" style="text;html=1;align=center;verticalAlign=middle;whiteSpace=wrap;rounded=0;" vertex="1" parent="1">
          <mxGeometry x="165" y="160" width="60" height="30" as="geometry" />
        </mxCell>
        <mxCell id="wngSB1kvzwr7eXXh66c_-7" value="" style="endArrow=none;html=1;rounded=0;entryX=1;entryY=1;entryDx=0;entryDy=0;" edge="1" parent="1" target="wngSB1kvzwr7eXXh66c_-38">
          <mxGeometry width="50" height="50" relative="1" as="geometry">
            <mxPoint x="40" y="200" as="sourcePoint" />
            <mxPoint x="780" y="200" as="targetPoint" />
          </mxGeometry>
        </mxCell>
        <mxCell id="wngSB1kvzwr7eXXh66c_-8" value="Fonds_nr" style="shape=parallelogram;perimeter=parallelogramPerimeter;whiteSpace=wrap;html=1;fixedSize=1;" vertex="1" parent="1">
          <mxGeometry x="40" y="280" width="90" height="50" as="geometry" />
        </mxCell>
        <mxCell id="wngSB1kvzwr7eXXh66c_-9" value="In Tab &quot;Makro Start&quot;&lt;br/&gt;Fonds_Nr eingeben&lt;br/&gt;und erstmal Daten&lt;br/&gt;holen&lt;div&gt;&lt;br/&gt;&lt;/div&gt;" style="text;html=1;align=center;verticalAlign=middle;whiteSpace=wrap;rounded=0;" vertex="1" parent="1">
          <mxGeometry x="380" y="250" width="230" height="30" as="geometry" />
        </mxCell>
        <mxCell id="wngSB1kvzwr7eXXh66c_-10" value="&lt;b&gt;Bechreibung - zukunftiger Prozess&lt;/b&gt;" style="text;html=1;align=center;verticalAlign=middle;whiteSpace=wrap;rounded=0;" vertex="1" parent="1">
          <mxGeometry x="390" y="145" width="230" height="60" as="geometry" />
        </mxCell>
        <mxCell id="wngSB1kvzwr7eXXh66c_-11" value="Manuelle Eingabe" style="shape=manualInput;whiteSpace=wrap;html=1;" vertex="1" parent="1">
          <mxGeometry x="150" y="300" width="90" height="70" as="geometry" />
        </mxCell>
        <mxCell id="wngSB1kvzwr7eXXh66c_-12" value="" style="endArrow=classic;html=1;rounded=0;exitX=1;exitY=0.5;exitDx=0;exitDy=0;entryX=0;entryY=0.5;entryDx=0;entryDy=0;" edge="1" parent="1" source="wngSB1kvzwr7eXXh66c_-8" target="wngSB1kvzwr7eXXh66c_-11">
          <mxGeometry width="50" height="50" relative="1" as="geometry">
            <mxPoint x="390" y="340" as="sourcePoint" />
            <mxPoint x="440" y="290" as="targetPoint" />
          </mxGeometry>
        </mxCell>
        <mxCell id="wngSB1kvzwr7eXXh66c_-13" value="" style="endArrow=classic;html=1;rounded=0;exitX=0.5;exitY=1;exitDx=0;exitDy=0;entryX=0.489;entryY=0.229;entryDx=0;entryDy=0;entryPerimeter=0;" edge="1" parent="1" source="wngSB1kvzwr7eXXh66c_-1" target="wngSB1kvzwr7eXXh66c_-11">
          <mxGeometry width="50" height="50" relative="1" as="geometry">
            <mxPoint x="390" y="340" as="sourcePoint" />
            <mxPoint x="440" y="290" as="targetPoint" />
          </mxGeometry>
        </mxCell>
        <mxCell id="wngSB1kvzwr7eXXh66c_-14" value="Stichtag" style="shape=parallelogram;perimeter=parallelogramPerimeter;whiteSpace=wrap;html=1;fixedSize=1;" vertex="1" parent="1">
          <mxGeometry x="30" y="360" width="90" height="50" as="geometry" />
        </mxCell>
        <mxCell id="wngSB1kvzwr7eXXh66c_-15" value="" style="endArrow=classic;html=1;rounded=0;exitX=1;exitY=0.5;exitDx=0;exitDy=0;entryX=0;entryY=0.75;entryDx=0;entryDy=0;" edge="1" parent="1" source="wngSB1kvzwr7eXXh66c_-14" target="wngSB1kvzwr7eXXh66c_-11">
          <mxGeometry width="50" height="50" relative="1" as="geometry">
            <mxPoint x="130" y="325" as="sourcePoint" />
            <mxPoint x="180" y="450" as="targetPoint" />
          </mxGeometry>
        </mxCell>
        <mxCell id="wngSB1kvzwr7eXXh66c_-16" value="&lt;div&gt;Makro generiert dann die Bestandsliste des Fond zum Auswertungsdatum in Tab &quot;Bestandliste&quot;&lt;/div&gt;" style="text;html=1;align=center;verticalAlign=middle;whiteSpace=wrap;rounded=0;" vertex="1" parent="1">
          <mxGeometry x="390" y="330" width="230" height="30" as="geometry" />
        </mxCell>
        <mxCell id="wngSB1kvzwr7eXXh66c_-18" value="Bestandsliste" style="shape=parallelogram;perimeter=parallelogramPerimeter;whiteSpace=wrap;html=1;fixedSize=1;" vertex="1" parent="1">
          <mxGeometry x="20" y="440" width="90" height="50" as="geometry" />
        </mxCell>
        <mxCell id="wngSB1kvzwr7eXXh66c_-19" value="" style="endArrow=none;dashed=1;html=1;dashPattern=1 3;strokeWidth=2;rounded=0;" edge="1" parent="1">
          <mxGeometry width="50" height="50" relative="1" as="geometry">
            <mxPoint x="640" y="920" as="sourcePoint" />
            <mxPoint x="640" y="160" as="targetPoint" />
          </mxGeometry>
        </mxCell>
        <mxCell id="wngSB1kvzwr7eXXh66c_-20" value="" style="endArrow=classic;html=1;rounded=0;entryX=1;entryY=0.5;entryDx=0;entryDy=0;exitX=-0.029;exitY=0.614;exitDx=0;exitDy=0;exitPerimeter=0;" edge="1" parent="1" source="wngSB1kvzwr7eXXh66c_-22" target="wngSB1kvzwr7eXXh66c_-18">
          <mxGeometry width="50" height="50" relative="1" as="geometry">
            <mxPoint x="188" y="480" as="sourcePoint" />
            <mxPoint x="440" y="170" as="targetPoint" />
          </mxGeometry>
        </mxCell>
        <mxCell id="wngSB1kvzwr7eXXh66c_-22" value="Daten generieren" style="whiteSpace=wrap;html=1;aspect=fixed;" vertex="1" parent="1">
          <mxGeometry x="155" y="420" width="70" height="70" as="geometry" />
        </mxCell>
        <mxCell id="wngSB1kvzwr7eXXh66c_-23" value="" style="endArrow=classic;html=1;rounded=0;exitX=0.5;exitY=1;exitDx=0;exitDy=0;entryX=0.5;entryY=0;entryDx=0;entryDy=0;" edge="1" parent="1" source="wngSB1kvzwr7eXXh66c_-11" target="wngSB1kvzwr7eXXh66c_-22">
          <mxGeometry width="50" height="50" relative="1" as="geometry">
            <mxPoint x="390" y="220" as="sourcePoint" />
            <mxPoint x="440" y="170" as="targetPoint" />
          </mxGeometry>
        </mxCell>
        <mxCell id="wngSB1kvzwr7eXXh66c_-25" value="&lt;div style=&quot;text-align: start;&quot;&gt;&lt;br&gt;&lt;/div&gt;" style="text;html=1;align=center;verticalAlign=middle;whiteSpace=wrap;rounded=0;" vertex="1" parent="1">
          <mxGeometry x="380" y="450" width="230" height="30" as="geometry" />
        </mxCell>
        <mxCell id="wngSB1kvzwr7eXXh66c_-28" value="&lt;span style=&quot;color: rgb(17, 17, 17); font-style: normal; font-variant-ligatures: normal; font-variant-caps: normal; font-weight: 400; letter-spacing: normal; orphans: 2; text-align: start; text-indent: 0px; text-transform: none; widows: 2; word-spacing: 0px; -webkit-text-stroke-width: 0px; white-space: normal; background-color: rgb(247, 247, 247); text-decoration-thickness: initial; text-decoration-style: initial; text-decoration-color: initial; float: none; display: inline !important;&quot;&gt;&lt;font style=&quot;font-size: 12px;&quot; face=&quot;Helvetica&quot;&gt;Power Query ist mit der Xentis-Datenbank als Datenquelle verknüpft. Jedes Mal, wenn wir das Makro nach dem Ausfüllen der Parameter (Stichtag, Fondsnummer) aktualisieren, werden die Daten aktualisiert.&lt;/font&gt;&lt;/span&gt;" style="text;whiteSpace=wrap;html=1;" vertex="1" parent="1">
          <mxGeometry x="390" y="410" width="230" height="50" as="geometry" />
        </mxCell>
        <mxCell id="wngSB1kvzwr7eXXh66c_-30" value="MSCI ESG" style="strokeWidth=1;html=1;shape=mxgraph.flowchart.database;whiteSpace=wrap;" vertex="1" parent="1">
          <mxGeometry x="270" y="470" width="70" height="40" as="geometry" />
        </mxCell>
        <mxCell id="wngSB1kvzwr7eXXh66c_-32" value="" style="endArrow=classic;html=1;rounded=0;entryX=1;entryY=0.75;entryDx=0;entryDy=0;exitX=0;exitY=0.5;exitDx=0;exitDy=0;exitPerimeter=0;" edge="1" parent="1" source="wngSB1kvzwr7eXXh66c_-30" target="wngSB1kvzwr7eXXh66c_-22">
          <mxGeometry width="50" height="50" relative="1" as="geometry">
            <mxPoint x="260" y="450" as="sourcePoint" />
            <mxPoint x="310" y="400" as="targetPoint" />
          </mxGeometry>
        </mxCell>
        <mxCell id="wngSB1kvzwr7eXXh66c_-37" value="4 Tabs werden generiert: Deckblatt, DNSH &amp;amp; Pai, Nachhaltigk.Inv. &amp;amp; Sektoren, Taxonomie" style="text;html=1;align=center;verticalAlign=middle;whiteSpace=wrap;rounded=0;" vertex="1" parent="1">
          <mxGeometry x="380" y="555" width="230" height="30" as="geometry" />
        </mxCell>
        <mxCell id="wngSB1kvzwr7eXXh66c_-38" value="&lt;b&gt;Realisierung / Backend&lt;/b&gt;" style="text;html=1;align=center;verticalAlign=middle;whiteSpace=wrap;rounded=0;" vertex="1" parent="1">
          <mxGeometry x="650" y="150" width="160" height="50" as="geometry" />
        </mxCell>
        <mxCell id="wngSB1kvzwr7eXXh66c_-39" value="Deckblatt" style="shape=document;whiteSpace=wrap;html=1;boundedLbl=1;" vertex="1" parent="1">
          <mxGeometry x="20" y="540" width="72" height="40" as="geometry" />
        </mxCell>
        <mxCell id="wngSB1kvzwr7eXXh66c_-42" value="DNSH&amp;amp;PAI" style="shape=document;whiteSpace=wrap;html=1;boundedLbl=1;" vertex="1" parent="1">
          <mxGeometry x="102" y="540" width="70" height="40" as="geometry" />
        </mxCell>
        <mxCell id="wngSB1kvzwr7eXXh66c_-43" value="Nachhalt." style="shape=document;whiteSpace=wrap;html=1;boundedLbl=1;" vertex="1" parent="1">
          <mxGeometry x="182" y="540" width="70" height="40" as="geometry" />
        </mxCell>
        <mxCell id="wngSB1kvzwr7eXXh66c_-44" value="Taxonomie" style="shape=document;whiteSpace=wrap;html=1;boundedLbl=1;" vertex="1" parent="1">
          <mxGeometry x="262" y="540" width="70" height="40" as="geometry" />
        </mxCell>
        <mxCell id="wngSB1kvzwr7eXXh66c_-45" value="" style="endArrow=classic;html=1;rounded=0;exitX=0.75;exitY=1;exitDx=0;exitDy=0;" edge="1" parent="1" source="wngSB1kvzwr7eXXh66c_-22">
          <mxGeometry width="50" height="50" relative="1" as="geometry">
            <mxPoint x="260" y="590" as="sourcePoint" />
            <mxPoint x="310" y="540" as="targetPoint" />
          </mxGeometry>
        </mxCell>
        <mxCell id="wngSB1kvzwr7eXXh66c_-46" value="" style="endArrow=classic;html=1;rounded=0;exitX=0.25;exitY=1;exitDx=0;exitDy=0;entryX=0.403;entryY=-0.025;entryDx=0;entryDy=0;entryPerimeter=0;" edge="1" parent="1" source="wngSB1kvzwr7eXXh66c_-22" target="wngSB1kvzwr7eXXh66c_-39">
          <mxGeometry width="50" height="50" relative="1" as="geometry">
            <mxPoint x="260" y="590" as="sourcePoint" />
            <mxPoint x="310" y="540" as="targetPoint" />
          </mxGeometry>
        </mxCell>
        <mxCell id="wngSB1kvzwr7eXXh66c_-47" value="" style="endArrow=classic;html=1;rounded=0;exitX=0.386;exitY=1;exitDx=0;exitDy=0;exitPerimeter=0;entryX=0.5;entryY=0;entryDx=0;entryDy=0;" edge="1" parent="1" source="wngSB1kvzwr7eXXh66c_-22" target="wngSB1kvzwr7eXXh66c_-42">
          <mxGeometry width="50" height="50" relative="1" as="geometry">
            <mxPoint x="260" y="590" as="sourcePoint" />
            <mxPoint x="310" y="540" as="targetPoint" />
          </mxGeometry>
        </mxCell>
        <mxCell id="wngSB1kvzwr7eXXh66c_-48" value="" style="endArrow=classic;html=1;rounded=0;exitX=0.5;exitY=1;exitDx=0;exitDy=0;entryX=0.5;entryY=0;entryDx=0;entryDy=0;" edge="1" parent="1" source="wngSB1kvzwr7eXXh66c_-22" target="wngSB1kvzwr7eXXh66c_-43">
          <mxGeometry width="50" height="50" relative="1" as="geometry">
            <mxPoint x="260" y="590" as="sourcePoint" />
            <mxPoint x="310" y="540" as="targetPoint" />
          </mxGeometry>
        </mxCell>
        <mxCell id="wngSB1kvzwr7eXXh66c_-51" style="edgeStyle=orthogonalEdgeStyle;rounded=0;orthogonalLoop=1;jettySize=auto;html=1;entryX=1;entryY=0.25;entryDx=0;entryDy=0;" edge="1" parent="1" source="wngSB1kvzwr7eXXh66c_-49" target="wngSB1kvzwr7eXXh66c_-22">
          <mxGeometry relative="1" as="geometry" />
        </mxCell>
        <mxCell id="wngSB1kvzwr7eXXh66c_-49" value="VM" style="strokeWidth=1;html=1;shape=mxgraph.flowchart.database;whiteSpace=wrap;" vertex="1" parent="1">
          <mxGeometry x="270" y="405" width="70" height="40" as="geometry" />
        </mxCell>
        <mxCell id="wngSB1kvzwr7eXXh66c_-52" value="Schritt 3. Makro Entwicklung&amp;nbsp;" style="text;html=1;align=center;verticalAlign=middle;whiteSpace=wrap;rounded=0;" vertex="1" parent="1">
          <mxGeometry x="650" y="250" width="160" height="30" as="geometry" />
        </mxCell>
        <mxCell id="wngSB1kvzwr7eXXh66c_-53" value="&lt;div&gt;Schritt 2. Power Query - Daten Anbinden und vsl. anpassen&lt;/div&gt;" style="text;html=1;align=center;verticalAlign=middle;whiteSpace=wrap;rounded=0;" vertex="1" parent="1">
          <mxGeometry x="647" y="490" width="163" height="30" as="geometry" />
        </mxCell>
        <mxCell id="wngSB1kvzwr7eXXh66c_-54" value="&lt;div&gt;Schritt 1. SQL Abfragen&amp;nbsp;&amp;nbsp;&lt;/div&gt;" style="text;html=1;align=center;verticalAlign=middle;whiteSpace=wrap;rounded=0;" vertex="1" parent="1">
          <mxGeometry x="650" y="410" width="163" height="30" as="geometry" />
        </mxCell>
        <mxCell id="wngSB1kvzwr7eXXh66c_-57" value="Versand" style="rhombus;whiteSpace=wrap;html=1;" vertex="1" parent="1">
          <mxGeometry x="135" y="797" width="110" height="50" as="geometry" />
        </mxCell>
        <mxCell id="wngSB1kvzwr7eXXh66c_-58" value="QS Checks" style="whiteSpace=wrap;html=1;aspect=fixed;" vertex="1" parent="1">
          <mxGeometry x="155" y="697" width="70" height="70" as="geometry" />
        </mxCell>
        <mxCell id="wngSB1kvzwr7eXXh66c_-59" value="Qualitätssicherung / prüfung - auf Basis von QS Report basierend auf MSCIESG_DATA_DICTIONARY&amp;nbsp;" style="text;html=1;align=center;verticalAlign=middle;whiteSpace=wrap;rounded=0;" vertex="1" parent="1">
          <mxGeometry x="380" y="650" width="230" height="30" as="geometry" />
        </mxCell>
        <mxCell id="wngSB1kvzwr7eXXh66c_-60" value="" style="endArrow=classic;html=1;rounded=0;entryX=0.5;entryY=0;entryDx=0;entryDy=0;" edge="1" parent="1" target="wngSB1kvzwr7eXXh66c_-58">
          <mxGeometry width="50" height="50" relative="1" as="geometry">
            <mxPoint x="190" y="590" as="sourcePoint" />
            <mxPoint x="310" y="480" as="targetPoint" />
          </mxGeometry>
        </mxCell>
        <mxCell id="wngSB1kvzwr7eXXh66c_-61" value="&lt;div&gt;&lt;div&gt;Hier ist die Anforderung, die Datenpunkte auf zwei Ebenen zu berechnen:&lt;/div&gt;&lt;div&gt;&lt;br&gt;&lt;/div&gt;&lt;div&gt;1. Emittentenebene (Issuer): Berechnen Sie die relevanten Datenpunkte auf Ebene des Emittenten.&lt;/div&gt;&lt;div&gt;2. Fondsebene (Fund Level): Berechnen Sie die relevanten Datenpunkte auf Fondsebene.&lt;/div&gt;&lt;/div&gt;&lt;div&gt;&lt;br&gt;&lt;/div&gt;&lt;div&gt;&lt;br&gt;&lt;/div&gt;&lt;div&gt;verwenden wir speziell für die Fondsinformationen den “Kurswert (dirty)” als Prozentsatz der Summe der Kurswerte aller Bestände im Portfolio dieses Fonds. Die Berechnung sieht folgendermaßen aus:&lt;/div&gt;&lt;div&gt;&lt;br&gt;&lt;/div&gt;&lt;div&gt;&lt;br&gt;&lt;/div&gt;" style="text;html=1;align=center;verticalAlign=middle;whiteSpace=wrap;rounded=0;" vertex="1" parent="1">
          <mxGeometry x="660" y="667" width="140" height="210" as="geometry" />
        </mxCell>
        <mxCell id="wngSB1kvzwr7eXXh66c_-62" value="" style="endArrow=classic;html=1;rounded=0;exitX=0.5;exitY=1;exitDx=0;exitDy=0;entryX=0.5;entryY=0;entryDx=0;entryDy=0;" edge="1" parent="1" source="wngSB1kvzwr7eXXh66c_-58" target="wngSB1kvzwr7eXXh66c_-57">
          <mxGeometry width="50" height="50" relative="1" as="geometry">
            <mxPoint x="260" y="877" as="sourcePoint" />
            <mxPoint x="310" y="827" as="targetPoint" />
          </mxGeometry>
        </mxCell>
        <mxCell id="wngSB1kvzwr7eXXh66c_-63" value="Ende" style="ellipse;whiteSpace=wrap;html=1;" vertex="1" parent="1">
          <mxGeometry x="145" y="877" width="90" height="50" as="geometry" />
        </mxCell>
        <mxCell id="wngSB1kvzwr7eXXh66c_-64" value="" style="endArrow=classic;html=1;rounded=0;exitX=0.5;exitY=1;exitDx=0;exitDy=0;entryX=0.5;entryY=0;entryDx=0;entryDy=0;" edge="1" parent="1" source="wngSB1kvzwr7eXXh66c_-57" target="wngSB1kvzwr7eXXh66c_-63">
          <mxGeometry width="50" height="50" relative="1" as="geometry">
            <mxPoint x="200" y="777" as="sourcePoint" />
            <mxPoint x="200" y="807" as="targetPoint" />
          </mxGeometry>
        </mxCell>
        <mxCell id="wngSB1kvzwr7eXXh66c_-76" value="" style="shape=image;verticalLabelPosition=bottom;labelBackgroundColor=default;verticalAlign=top;aspect=fixed;imageAspect=0;image=data:image/png,iVBORw0KGgoAAAANSUhEUgAAAa4AAAA3CAYAAABU666lAAAAAXNSR0IArs4c6QAAAARnQU1BAACxjwv8YQUAAAAJcEhZcwAAFiUAABYlAUlSJPAAABVsSURBVHhe7d0FsNtGF4ZhlZmZmZmZYcrMnDKlkDIzU8pMKafMzJgyMzNzm3L/ebbejOLavr43N/nj5rwznhtLtlZaKefbA7serHfv3n8XQRAEQdAiDF75GwRBEAQtQQhXEARB0FKEcAVBEAQtRQhXEARB0FKEcAVBEAQtRQhXEARB0FKEcAVBEAQtRQhXEARB0FKEcAVBEAQtRQhXEARB0FKEcAVBEAQtRQhXEARB0FKEcAVBEAQtRQhXEARB0FKEcAVBEAQtRQhXELQg9957bzH++OOn1/nnn5+27bPPPun9JJNMUjz44INp23+RP//8s7j++uuLrl27Ft9//31l6z98+eWXxWKLLVbMNddcxeeff562Pf/888VSSy3V531n8O677xZbb7118dBDDxV//x0/aTigCeEKghaEcd5hhx2KNddcs+jSpUvattJKKxXLLLNM8cILLxQLLbRQ2tZKvPHGG8Wyyy7bUGD++OOP4sgjjyw++OCDonv37sXII49c2fMPY445ZnHUUUcVww8/fGVL8xD7ddZZp/jpp58qW+oz6aSTpvZvueWW4uqrr65sDQYUIVxB0KKMNNJIlX/9Y/SvvPLKmsa8Vfjmm2+Kn3/+ufKuNo888kjydjbffPNiiCGGqGztm2GHHbYYeuihK++KYuaZZy7uvPPOYuyxx65sqc0XX3xR/P7775V3baOdbt26pX5/7bXXKluDAUEIVxC0OC+//HJx6qmnFnvssUcf0RIyW3DBBfuEzGq957UtuuiiKew222yzFauvvnryNl566aW0T9hxwgknLA444IDkjQhBlsOQF110UZ/v5OP5/P3335/CZxdeeGEx+eSTp22HH354EgXCxEOcfvrpi5tuuqlYYokl0jndeOONxXrrrZcEeNZZZy2mmGKKFOIr8+uvvxbnnntuscYaayTRyOS2pp122nTOu+66a/Hbb7+lfbm9fLx67eu/nXfeuXj00UeLqaaaKm0zCHC86aabLvXJK6+8Usw000xpm1AteHhzzz13OlYw4AjhCoIWxmh/ySWXTCP+IYccsrL1H4O6//77V97Vfi+k9t1336WckXDXuOOOW/zyyy/FwQcfXGy55ZYpHHfaaaclYy/0SMAWXnjhZKiF7J588sni/fffT6LleISHACyyyCJJ3Ajb3XffXTz33HNJEOSDhPAOPPDAYsQRR0zfvfzyy5NozjPPPKmtCSaYoHj22WeLt956K3lKZT799NPi448/TmJYJrd18803p3Nebrnl+nhuuT3iWX5f3b6Q6+67717MN998STyfeOKJlMMi7Ly7GWaYIQmYbVtssUXantEfjz32WPHjjz9WtgT9mxCuIGhhGFzewOCDD1707NmzsrU5eC0EhydGDIjOKKOMUow++uhJZBQ+yJsdc8wx6fNzzjlnMvYE5KOPPkpiwHN59dVXkzf0zjvvJAECL853J5tssmKMMcYoFlhggaJXr15p33DDDZfa0e5YY41VnHXWWW2G8UBk4btlclu8KuHDxRdfvBh11FEre/9prxw6bLZ9/bP22msn0eVV8hjffvvtYt111y0GG2ywyqf+OZ9vv/22j1gG/Z8QriBocUYbbbTkIZ155plJPPoFXtsRRxxRjDDCCClkJ+zGKIMwMPSE6sUXX0zhNN4GkSNoBGqcccZJn81FFMJqXieddFLxySefpH0dRfivVg5KW/XyXf0KIZZ7c81CjfplyimnrOwN/l+EcAXBfwDhQt7NBRdc0Kc8u9rTaBbeytFHH53Eidd13HHHpe2MNq9LaE4ob8YZZ0zi9eabbxb33XdfMfvss/fliey5554ptJdfJ554YmVPbYhm+fvVuJahhhqq8q5vhDszrv+vv/6qvGueWscmxPPOO2/KaakgXHnllfsKyQb/H0K4gqBF+eGHH5K3wVATle233z6FC+WIIIQlxPX666+nzxKXspAJvcnLlI2+wg25Kp6bUBlvqRwCE4a7/fbb0+d4WLwPx3nggQeScGV87qqrrkrHcfwrrriiuOuuu9K+3G4W2IywJc9JdR+RyNeRySHCHDLMEFPFHfJbrlNbzjlfl8+Xr6Fe+0rcXRex7tGjRwqHElJi5Zi8SrmuauT4VHh2pAQ/6BghXEHQgqjcO+WUU4prr702eVlQJs4or7jiimmb0J5iA3manXbaKVX9yU+pPmTkFWu89957xd57793HsPM6GHzFGCoIH3744WK77bZL+0CoFDbYz6gLU/L0hBXLuScFEuaU5eNoV9GGdlQYatc5MfoZ5+s4Sy+9dPH000//SyQUjxBSVZRlCIvv8ow22mijVEBCgFzXV199ldojoIpR8vta7Wtbfs9xeGzagmpF+TyCXq5mzDz++OPpXPVLMGAYrHfv3jHtOwiCloC3x5M7+eSTa4pI/0CO69hjj+1rukGG8Kk0POyww4ppppmmsjXo39T0uMrLyZRf4tlGMlDimud6GFEpMVVKm1GJU54LoqSU690MYup5fkjQN/rViFK/7rLLLpWtRaosU66b71V+le9ZZ5GXFrrjjjsqW9pPZxwjGPQQglQgcs455/QV4uwfnH766cVtt92WSubnmGOOf4kWe3f88ccn73LqqaeubA0GBDWFi+Dk5WRyYtUyMrPMMkvab5Qh8WrCnpCD0Y/4dV43TGzaKCTPBSGEDKtXWwh1EEXf026r0cyyNR3l66+/TnNsDj300BQiKucrhCqM+vI8FH1nXku5LLizMN8lPwsdZa+99koVaUHQHoQyDznkkDQYltOrXquwM5Fv23TTTVN4Ufi1jLCs9omWCc2NikqCzqdujqu8nAwkYo1yzHdgFCWFxYLdXDFpBhPmcyh9XWGFFdK6X/abiW62ezMoOZVs5Xab1NdqNLNsTUf58MMPU7+LuSvTVbZcpjrGbo6NvuxsVFX1ayLaf/T+VcIc/Lfx3KyyyirJI+qfy1sZeLN1++67778qDhVysIfmgoVoDXiaKs6Q2JSgzaE7o3hVOWbFq8wRazZJkajxCnhcJhyWb6iwFoFrC2JlVjpRlIBmqDPmgay66qp9hcIkZYmdkZdzLO/zshRLrSVeeETmhEjUGr2ZgGnZmFxp1KgtlUu8Ht+x3XwV56lMuK1la4QXLFuTl47ZZptt+iyZU70kT/V7fchrdewdd9yxcsT6DDPMMEnc3BfXY/CgTaFd55znxFhd3Pazzz47eXT+vf766/c1mtVuDv0qvVYOnXEcx3Nc+w1iLI+Dcj8KcVZ73fm+WTHB58pzfXw2h0XL+zwX7pnkO+OhXedG2DNttRsEQevSULgsJ+M/PhFSFZSZeOKJU1jqoIMOSi60ctuMUlaz+BmW9sI4G+EYzTDY5ofYBsLAqFoGxux1s+VVOMmR2MboMoKWvjEhUsxZEpfnV2uJF1x22WUpLGm+iuNcfPHF6ftttWWf6yNQlqlRikuwVVC1tWxNjx490nmomnJcS8v4XK0learfy/0JCTp2W3NieH6bbbZZEj1iycgz4KqplBpfc8016S823HDDFPLw3r+VNhMeS/rAPTARlVgK4fKoiXeGYN9zzz3FU089lSq+DBKIWW5XXsI1EyhCWs6FyiEY0RIWntyll16atuc2vXzX86CKzsBCdZowjXbdS31p8JSvp5l2MwYWBhie83qvyMMFwcBFQ+HKOS4lsUpRyzAKjK7Rv9+6Oe+88/41LyKjGocB4EFkIaqFPBrR4v4TCu45cYAQJCNMRBkpoUTltwwxGChemhCnEbhwGkFCrSVeCJkc0MYbb5w8SO36HsPbVlu8y0022SSFLHhd7QmbCT8QfNemPeXEnUleJJTAZW+PMPJG3E/t2rfaaqslsQHBMA8oT2Idb7zx0t/s7TqOPrTfNRMm9z2jbwi3z+l/HiXBzu3y9LTh/sgXfPbZZ5VvFuk8tOceWEpHabFQa27Tc+a72iam2QvUjnlDkubC2AYq2YNspt1MPk/Peb1XM5GCIAgGHE2FChkx65gxbmUYDyEzsWYhG6NxxobhKXtoRr+S+f7yHBwrj2Zz9SDRu+GGG9JcC9vNyjcKJ5oQ9hLyUg5r5MwzYiwnmmiitJ8XaIKl5WkIDAFSZVcP7THMqh215/tG7EJMbbXlM67FaN9clbwkTjPwVJTWzj///Mn48+g6k1ycwfDn8txcfVXOKVXnMBuhn4R968XyCYiVFnhORIIg6l/tuj7ioo+dG++8PIGUsGQMJrSV742wMUHyXTkNz5dBRVs0025n4NjxitfA8hqUaHrtEsbE6tBGsURJeEZlIRQAEDUGnBfhZeTME2PsGCdeSTZSQjdeZXhMRtNG1XkioxWfr7vuuiRsjr/bbrulCYa8HKNs4UqeGYTFhAh5A7wkXh4j2hYEV5ismnptCcGpNCJYfuNHib9wVsY11jPwjK5wG/HOPz6njUxHl+iphTaEPuF+Weetd+/e6T0Y97JotIXPewaQRSnjenlGBhkGDwQsT4rlyToPXlWZWlMd5E3Lz4mqQ9/tyMTOeu1WQ+Dlwsp9U41rqeV18caCIBjw1PW4yjkMCKc888wzKdQG+RkjewZMroExo/pEx+j4kksu6fO7PLyf6uVbqhF2FCLMogUegza0bQROyOR2GAxhRStCZ5GwJAvvyT6j7a222qpPJVCtJV4IIa9HYQLB5VnxHB23UVtCnQRWvohB9cN2xCyP5gkGz6bWsjWMNa9ByJJHJ6wnJJm/69p9pt4SPc7fedYzsq6xLDAZRty5yu/5vv7k3WZjTFB5lBnfdxzHA49bPxgY6Bs5n5wLhH4zJcJqA9Z2IzyEUruESK7R8XiqBgD5uFAww0N3D+QcFVnweIV69U323jxD5szkNssevf2252e2mXYzESoMgtajpnDl5WRycYYXQ81YMMpCZPI/8g7CZz5rbgWjDR6J5VT8VaigcEJup94I34iWJ6K9PFInECap+qvCjTEnNopB8jnx7Hye4bJUC7HK+7yEMYlMvSVe/K4OAeGleRFlIUrXWK8tf1U9Lr/88unl8wRNAQgDLNEvBMjYVS9bI5+11lprFdtuu23yUhlXXpw5Tc7Ld4W1ai3RI0cjHMfI5rbK8FR5xDxdfVneb0DguwoheJDOW/Wj+wcFESpE3UfhWQLnOI7nuM7ROetf99591F/Oy379pijFs2AOm2s06NCuakP31b4NNtgg7cselL7UJ/rQSzjZeUHo1v3zDHiGPF8KR7Tt+TTgcFxzBAm8eW3O37622g2CoLVpmSWfGHbhO5V2PACoflMtpjDEXwKXfw+Ip2YS9BlnnJGKFdpDo7Z4kkQyCMrkgVc9DEhUlBoQwcDCwInwEnnf5aUTWIMUAwBerMHNoICBiEGKlzSCv7bVC9O2FwMyaY5ynlP1s0GcAVKOJA1sdHY//FdoqjhjYEDIRnk8D4qHpYJMGE7+SZhIrsJ/eKEhLw+qB7MjVXuN2hpUDEnQPniKwro8ZXnPHGb0HDGY1XiORAIMqoSkRSt4trxseVeVma32rAk584o7Mn1Ala5cY6azV1apXlnGPbr11ltTVERf9wv77bdfKjgrow8UnklbyPWzTx2hM1ap+S/SMsKlQtCDLYwmdMQTknPjBZlTxbsyOhEa8vKf/4QTTugTvmwPjdpS+BEE1TCyplb4McdyXpP4CFUqvKmmXIxjcCRXqOinVrFQKyB/Wg7Ftwfh9nIqwftyFWxnUA4VO76wuZB0rUKhZjFolkPtX+iTGCz/m5YRLoUW3bp1S79EaiRrng4Xmkh5CC0vRVzySFfSX96kIzRqKwhq4Rns2rVrMoTya7z1TK6OzGHCangqREsFpBBhJs9/zB5M9XvPpPfC4VZVyfuIYPVKJsRU5a2BmL9ClQpyeHimfZSP16VLl7Rf1KLRyiXOh7fo36ax+D9oQj/vyXeqvRDIVQvp2y9EKgTfLPXOp14/NEJUplevXqmgJ+dVUa+Nen1q5RtFWLw524WMRWnkWfWhQizCmAvF8rl2dJUa1DvHQYmWEa4gGNjh3ZsiolpUhWQzqKb0e1KMotA2AcwwwoQmU/0+r3jCAAspCVOi1komjk1cRBMIi1G8MCbxMuCDYiSGkBgxum2tXCL8pX2fZ6gtmeb85GMM+KqnvOTcsTmQQmhEOk8LaQvfrXc+9fqhFnmCvkEokVHolOd7NmqjXp927949iZhoj2vWF/Zb5Ubu3b8VgOXJ/vlcO7pKTaNzHJQI4QqCTsR8NrkNhRWmDLSFFUNUe/q8V3tGz8JIvDgVqqYhMNoS+PVWMpGjtUZmntTPYyBA/vIKGFAVsUTId9taucTkcCLgenkebUHYTaORbxJyb0/RVKPzqdcPtcg5LqJAZJx39jgbtVGvT2vh+hTb5BVheGmZfK6OLQXhM/7maR75HOwXKiWQ5VVq2rovgwohXEHQiQgJ+UkgRsWIu1kk8Bk08wf7dfRcbyUT3pwcmtE9geTtMXxG9LwFUyCstwmGtKMrl9TDOTim0JxCFOG1Zuns8yEKwnFCeXmNy0Zt1OvTWghDOqaKRaLVqNq0GufgPpU97zL94760IiFcQdDJmHzNYPFmmoWXI7QmxCgPhDw6by+MnhE5z4qxVfUmLAgTu5WEm0yuOEHIzKhfCM2o3eTtjNyccyFqXhYJEPaqh9CZc66HNoTALBQgFya81h7aez4doV4b9frU9upr7tmzZwoVKuZyLGuEtgfCl0XRX+/LDIh+GNgJ4QqCToTxNy/IZO22inmsgKISLxsphlG+RZGBYgAriAjv8ZC8Jzbl1T+MsoWvqg1bvZVMIAdFVIW6jNrtk7NSgWttx1w128zKJf5d9jqEsHgBJvvLYZnzWEaRgf1CevpJbs35uw7Hcbx8Ldlg5/YanU+9fqim3Hc+aw6d47luNGqjXp/KFVqAXL7JdBz3zuLewojupZ+EInB5pZd8rpl8nc2uUtPWfRlUCOEKgk6CIVE9SLDamiyq+EFhAGOeV3RhvITwLF8mgU/YhIKU2BMXuRU5D0Ua8hp5xRMegEq/TL2VTJCFiidnpRYwsnI45VxKMyuXWK1EIUbGMZ2v7/GsCHEZoTm5NMbXQtN+csj5C486juPla+GtCF3m1VkanU+9fijjGFaCKRdnWA1G3/tVAjRqo1GfyvFZU1Vxi1CrfVZzIULyZ8LABgqEsl9XqWl0joMSLbNyRhAM7KhqY5D9bE554jsxMtlY5WBHQn9BEPRNeFxB0AkQJ6Nfpd5l0eKFKXluT7VgEASNCY8rCPoR+SeCVZ3TKSP0J/8xqIV0gqB/EMIVBEEQtBQRKgyCIAhaihCuIAiCoKUI4QqCIAhaihCuIAiCoIUoiv8BAcOOSRZzc74AAAAASUVORK5CYII=;" vertex="1" parent="1">
          <mxGeometry x="470" y="950" width="340" height="43.49" as="geometry" />
        </mxCell>
        <mxCell id="wngSB1kvzwr7eXXh66c_-77" value="DWH" style="strokeWidth=1;html=1;shape=mxgraph.flowchart.database;whiteSpace=wrap;" vertex="1" parent="1">
          <mxGeometry x="270" y="340" width="70" height="40" as="geometry" />
        </mxCell>
        <mxCell id="wngSB1kvzwr7eXXh66c_-78" style="edgeStyle=orthogonalEdgeStyle;rounded=0;orthogonalLoop=1;jettySize=auto;html=1;entryX=1;entryY=0.75;entryDx=0;entryDy=0;exitX=-0.043;exitY=0.675;exitDx=0;exitDy=0;exitPerimeter=0;" edge="1" parent="1" source="wngSB1kvzwr7eXXh66c_-77" target="wngSB1kvzwr7eXXh66c_-22">
          <mxGeometry relative="1" as="geometry">
            <mxPoint x="280" y="430" as="sourcePoint" />
            <mxPoint x="235" y="448" as="targetPoint" />
          </mxGeometry>
        </mxCell>
      </root>
    </mxGraphModel>
  </diagram>
</mxfile>
